<svg width="134" height="43" viewBox="0 0 134 43" fill="none" xmlns="http://www.w3.org/2000/svg">
<g clip-path="url(#clip0_2004_172)">
<path d="M55.144 37.4L60.168 28.792L59.208 32.312V14.424H63.176V30.616L59.208 37.4H55.144ZM61.192 12.44C60.5093 12.44 59.9333 12.2053 59.464 11.736C58.9947 11.2453 58.76 10.6693 58.76 10.008C58.76 9.34667 58.9947 8.78133 59.464 8.312C59.9333 7.84267 60.5093 7.608 61.192 7.608C61.896 7.608 62.472 7.84267 62.92 8.312C63.3893 8.78133 63.624 9.34667 63.624 10.008C63.624 10.6693 63.3893 11.2453 62.92 11.736C62.472 12.2053 61.896 12.44 61.192 12.44ZM71.5318 31.384C69.8464 31.384 68.4704 30.9573 67.4038 30.104C66.3584 29.2293 65.8358 28.0667 65.8358 26.616C65.8358 25.208 66.3051 24.0667 67.2438 23.192C68.1824 22.3173 69.4518 21.72 71.0518 21.4L77.6758 20.024V22.648L72.5878 23.8C71.7131 24.0133 71.0411 24.312 70.5718 24.696C70.1238 25.0587 69.8998 25.5813 69.8998 26.264C69.8998 26.9467 70.1344 27.48 70.6038 27.864C71.0944 28.2267 71.7238 28.408 72.4918 28.408C73.2384 28.408 73.8891 28.2587 74.4438 27.96C74.9984 27.64 75.4251 27.2133 75.7238 26.68C76.0224 26.1253 76.1718 25.496 76.1718 24.792V20.12C76.1718 19.16 75.9264 18.424 75.4358 17.912C74.9451 17.4 74.2304 17.144 73.2917 17.144C72.3958 17.144 71.6811 17.368 71.1478 17.816C70.6358 18.264 70.2838 18.8933 70.0918 19.704L66.2518 18.904C66.5931 17.4107 67.3931 16.2267 68.6518 15.352C69.9104 14.4773 71.4891 14.04 73.3878 14.04C75.6491 14.04 77.3344 14.6053 78.4438 15.736C79.5744 16.8453 80.1398 18.392 80.1398 20.376V27.768L81.3558 31H77.2598L76.5558 29.016C76.0438 29.7627 75.3611 30.3493 74.5078 30.776C73.6544 31.1813 72.6624 31.384 71.5318 31.384ZM82.5388 31L88.2668 22.328L83.1468 14.424H87.6268L91.0828 20.152L94.5068 14.424H98.9548L93.8988 22.232L99.6908 31H95.2428L91.1468 24.344L86.9868 31H82.5388ZM98.711 24.12V20.6H106.423V24.12H98.711ZM105.019 37.4L110.043 28.792L109.083 32.312V14.424H113.051V30.616L109.083 37.4H105.019ZM111.067 12.44C110.384 12.44 109.808 12.2053 109.339 11.736C108.87 11.2453 108.635 10.6693 108.635 10.008C108.635 9.34667 108.87 8.78133 109.339 8.312C109.808 7.84267 110.384 7.608 111.067 7.608C111.771 7.608 112.347 7.84267 112.795 8.312C113.264 8.78133 113.499 9.34667 113.499 10.008C113.499 10.6693 113.264 11.2453 112.795 11.736C112.347 12.2053 111.771 12.44 111.067 12.44ZM122.303 31.384C120.468 31.384 118.943 30.9893 117.727 30.2C116.532 29.3893 115.753 28.1413 115.391 26.456L119.135 25.624C119.369 26.6267 119.753 27.3627 120.287 27.832C120.841 28.28 121.567 28.504 122.463 28.504C123.295 28.504 123.924 28.3333 124.351 27.992C124.799 27.6507 125.023 27.1387 125.023 26.456C125.023 25.9227 124.873 25.4853 124.575 25.144C124.297 24.7813 123.796 24.4933 123.071 24.28L119.967 23.416C118.815 23.096 117.897 22.5627 117.215 21.816C116.553 21.0693 116.223 20.1093 116.223 18.936C116.223 17.9547 116.479 17.1013 116.991 16.376C117.524 15.6293 118.26 15.0533 119.199 14.648C120.137 14.2427 121.236 14.04 122.495 14.04C123.583 14.04 124.564 14.1893 125.439 14.488C126.335 14.7653 127.081 15.2027 127.679 15.8C128.297 16.3973 128.713 17.1653 128.927 18.104L125.247 19.032C124.991 18.3067 124.628 17.7733 124.159 17.432C123.689 17.0907 123.092 16.92 122.367 16.92C121.62 16.92 121.055 17.08 120.671 17.4C120.287 17.72 120.095 18.136 120.095 18.648C120.095 19.1173 120.233 19.5013 120.511 19.8C120.788 20.0773 121.204 20.3013 121.759 20.472L124.671 21.272C125.567 21.528 126.335 21.8587 126.975 22.264C127.615 22.6693 128.105 23.192 128.447 23.832C128.788 24.4507 128.959 25.2293 128.959 26.168C128.959 27.2773 128.671 28.2267 128.095 29.016C127.54 29.784 126.761 30.3707 125.759 30.776C124.756 31.1813 123.604 31.384 122.303 31.384Z" fill="black"/>
<path d="M23.286 21.5H2L12.643 39.9284H33.929L23.286 21.5Z" fill="#104F4F" stroke="#E7E7E7" stroke-linejoin="round"/>
<path d="M23.25 21.4284L33.893 3L44.536 21.4284L33.893 39.8567L23.25 21.4284Z" fill="#D844A9" stroke="#E7E7E7" stroke-linejoin="round"/>
<path d="M12.643 3L2 21.4284H23.286L33.929 3H12.643Z" fill="#A385EF" stroke="#E7E7E7" stroke-linejoin="round"/>
</g>
<defs>
<clipPath id="clip0_2004_172">
<rect width="134" height="43" fill="white"/>
</clipPath>
</defs>
</svg>
